<mxfile host="Electron" modified="2024-02-26T07:59:23.719Z" agent="Mozilla/5.0 (Windows NT 10.0; Win64; x64) AppleWebKit/537.36 (KHTML, like Gecko) draw.io/23.1.5 Chrome/120.0.6099.109 Electron/28.1.0 Safari/537.36" etag="JqQwkmvmV1yt_mw2fZ6O" version="23.1.5" type="device">
  <diagram name="Seite-1" id="b-Z7xc3vudc196lJoeyK">
    <mxGraphModel dx="989" dy="582" grid="1" gridSize="10" guides="1" tooltips="1" connect="1" arrows="1" fold="1" page="1" pageScale="1" pageWidth="827" pageHeight="1169" math="0" shadow="0">
      <root>
        <mxCell id="0" />
        <mxCell id="1" parent="0" />
        <mxCell id="DVWeAlgnOjFAcLPvt_do-1" value="" style="endArrow=classic;html=1;rounded=0;" edge="1" parent="1">
          <mxGeometry width="50" height="50" relative="1" as="geometry">
            <mxPoint x="200" y="100" as="sourcePoint" />
            <mxPoint x="200" y="480" as="targetPoint" />
          </mxGeometry>
        </mxCell>
        <mxCell id="DVWeAlgnOjFAcLPvt_do-2" value="" style="endArrow=classic;html=1;rounded=0;startArrow=none;startFill=0;" edge="1" parent="1">
          <mxGeometry width="50" height="50" relative="1" as="geometry">
            <mxPoint x="80" y="200" as="sourcePoint" />
            <mxPoint x="640" y="200" as="targetPoint" />
          </mxGeometry>
        </mxCell>
        <mxCell id="DVWeAlgnOjFAcLPvt_do-3" value="x-Axis" style="text;html=1;align=center;verticalAlign=middle;whiteSpace=wrap;rounded=0;" vertex="1" parent="1">
          <mxGeometry x="640" y="180" width="60" height="30" as="geometry" />
        </mxCell>
        <mxCell id="DVWeAlgnOjFAcLPvt_do-4" value="y-Axis" style="text;html=1;align=center;verticalAlign=middle;whiteSpace=wrap;rounded=0;" vertex="1" parent="1">
          <mxGeometry x="170" y="490" width="60" height="30" as="geometry" />
        </mxCell>
        <mxCell id="DVWeAlgnOjFAcLPvt_do-5" value="0, 0" style="text;html=1;align=center;verticalAlign=middle;whiteSpace=wrap;rounded=0;" vertex="1" parent="1">
          <mxGeometry x="150" y="200" width="60" height="30" as="geometry" />
        </mxCell>
        <mxCell id="DVWeAlgnOjFAcLPvt_do-6" value="" style="ellipse;whiteSpace=wrap;html=1;aspect=fixed;" vertex="1" parent="1">
          <mxGeometry x="NaN" y="NaN" width="NaN" as="geometry" />
        </mxCell>
        <mxCell id="DVWeAlgnOjFAcLPvt_do-7" value="" style="rounded=0;whiteSpace=wrap;html=1;" vertex="1" parent="1">
          <mxGeometry x="240" y="240" width="120" height="80" as="geometry" />
        </mxCell>
        <mxCell id="DVWeAlgnOjFAcLPvt_do-8" value="5, 5" style="text;html=1;align=center;verticalAlign=middle;whiteSpace=wrap;rounded=0;" vertex="1" parent="1">
          <mxGeometry x="230" y="230" width="30" height="10" as="geometry" />
        </mxCell>
        <mxCell id="DVWeAlgnOjFAcLPvt_do-9" value="20, 5" style="text;html=1;align=center;verticalAlign=middle;whiteSpace=wrap;rounded=0;" vertex="1" parent="1">
          <mxGeometry x="360" y="230" width="30" height="10" as="geometry" />
        </mxCell>
        <mxCell id="DVWeAlgnOjFAcLPvt_do-10" value="20, 15" style="text;html=1;align=center;verticalAlign=middle;whiteSpace=wrap;rounded=0;" vertex="1" parent="1">
          <mxGeometry x="360" y="330" width="40" height="10" as="geometry" />
        </mxCell>
        <mxCell id="DVWeAlgnOjFAcLPvt_do-11" value="5, 15" style="text;html=1;align=center;verticalAlign=middle;whiteSpace=wrap;rounded=0;" vertex="1" parent="1">
          <mxGeometry x="225" y="330" width="40" height="10" as="geometry" />
        </mxCell>
        <mxCell id="DVWeAlgnOjFAcLPvt_do-12" value="User Space&lt;div&gt;(Koordinaten haben Einheit User-Unit)&lt;/div&gt;" style="text;html=1;align=center;verticalAlign=middle;whiteSpace=wrap;rounded=0;" vertex="1" parent="1">
          <mxGeometry x="80" y="330" width="90" height="70" as="geometry" />
        </mxCell>
        <mxCell id="DVWeAlgnOjFAcLPvt_do-13" value="" style="ellipse;whiteSpace=wrap;html=1;aspect=fixed;" vertex="1" parent="1">
          <mxGeometry x="200" y="120" width="80" height="80" as="geometry" />
        </mxCell>
        <mxCell id="DVWeAlgnOjFAcLPvt_do-14" value="cx= 5&lt;br&gt;cy = -5, &lt;br&gt;r=5" style="text;html=1;align=center;verticalAlign=middle;whiteSpace=wrap;rounded=0;" vertex="1" parent="1">
          <mxGeometry x="210" y="130" width="60" height="60" as="geometry" />
        </mxCell>
        <mxCell id="DVWeAlgnOjFAcLPvt_do-15" value="x &amp;gt; 0&lt;br&gt;y &amp;lt; 0" style="text;html=1;align=center;verticalAlign=middle;whiteSpace=wrap;rounded=0;strokeColor=default;" vertex="1" parent="1">
          <mxGeometry x="520" y="110" width="60" height="30" as="geometry" />
        </mxCell>
        <mxCell id="DVWeAlgnOjFAcLPvt_do-16" value="x &amp;gt; 0&lt;br&gt;y &amp;gt; 0" style="text;html=1;align=center;verticalAlign=middle;whiteSpace=wrap;rounded=0;strokeColor=default;" vertex="1" parent="1">
          <mxGeometry x="520" y="250" width="60" height="30" as="geometry" />
        </mxCell>
        <mxCell id="DVWeAlgnOjFAcLPvt_do-17" value="x &amp;lt; 0&lt;br&gt;y &amp;gt; 0" style="text;html=1;align=center;verticalAlign=middle;whiteSpace=wrap;rounded=0;strokeColor=default;" vertex="1" parent="1">
          <mxGeometry x="100" y="260" width="60" height="30" as="geometry" />
        </mxCell>
        <mxCell id="DVWeAlgnOjFAcLPvt_do-18" value="x &amp;lt; 0&lt;br&gt;y &amp;lt; 0" style="text;html=1;align=center;verticalAlign=middle;whiteSpace=wrap;rounded=0;strokeColor=default;" vertex="1" parent="1">
          <mxGeometry x="100" y="110" width="60" height="30" as="geometry" />
        </mxCell>
        <mxCell id="DVWeAlgnOjFAcLPvt_do-19" value="ViewBox" style="rounded=0;whiteSpace=wrap;html=1;fillColor=#FF9999;dashed=1;fillStyle=hatch;" vertex="1" parent="1">
          <mxGeometry x="170" y="137.5" width="310" height="155" as="geometry" />
        </mxCell>
        <mxCell id="DVWeAlgnOjFAcLPvt_do-20" value="HTML Dokument" style="rounded=0;whiteSpace=wrap;html=1;verticalAlign=top;" vertex="1" parent="1">
          <mxGeometry x="370" y="430" width="240" height="230" as="geometry" />
        </mxCell>
        <mxCell id="DVWeAlgnOjFAcLPvt_do-21" value="svg" style="rounded=0;whiteSpace=wrap;html=1;verticalAlign=bottom;labelPosition=center;verticalLabelPosition=top;align=center;" vertex="1" parent="1">
          <mxGeometry x="414" y="510" width="120" height="60" as="geometry" />
        </mxCell>
        <mxCell id="DVWeAlgnOjFAcLPvt_do-22" value="50px" style="text;html=1;align=center;verticalAlign=middle;whiteSpace=wrap;rounded=0;" vertex="1" parent="1">
          <mxGeometry x="444" y="570" width="60" height="30" as="geometry" />
        </mxCell>
        <mxCell id="DVWeAlgnOjFAcLPvt_do-23" value="50px" style="text;html=1;align=center;verticalAlign=middle;whiteSpace=wrap;rounded=0;" vertex="1" parent="1">
          <mxGeometry x="520" y="525" width="60" height="30" as="geometry" />
        </mxCell>
        <mxCell id="DVWeAlgnOjFAcLPvt_do-24" value="" style="endArrow=none;html=1;rounded=0;exitX=0;exitY=0;exitDx=0;exitDy=0;entryX=0.002;entryY=0.033;entryDx=0;entryDy=0;entryPerimeter=0;dashed=1;" edge="1" parent="1" source="DVWeAlgnOjFAcLPvt_do-21" target="DVWeAlgnOjFAcLPvt_do-19">
          <mxGeometry width="50" height="50" relative="1" as="geometry">
            <mxPoint x="280" y="530" as="sourcePoint" />
            <mxPoint x="330" y="480" as="targetPoint" />
          </mxGeometry>
        </mxCell>
        <mxCell id="DVWeAlgnOjFAcLPvt_do-25" value="" style="endArrow=none;html=1;rounded=0;entryX=1;entryY=0;entryDx=0;entryDy=0;exitX=1;exitY=0;exitDx=0;exitDy=0;dashed=1;" edge="1" parent="1" source="DVWeAlgnOjFAcLPvt_do-19" target="DVWeAlgnOjFAcLPvt_do-21">
          <mxGeometry width="50" height="50" relative="1" as="geometry">
            <mxPoint x="280" y="520" as="sourcePoint" />
            <mxPoint x="330" y="470" as="targetPoint" />
          </mxGeometry>
        </mxCell>
        <mxCell id="DVWeAlgnOjFAcLPvt_do-26" value="" style="endArrow=none;html=1;rounded=0;exitX=0;exitY=1;exitDx=0;exitDy=0;entryX=0;entryY=1;entryDx=0;entryDy=0;dashed=1;" edge="1" parent="1" source="DVWeAlgnOjFAcLPvt_do-21" target="DVWeAlgnOjFAcLPvt_do-19">
          <mxGeometry width="50" height="50" relative="1" as="geometry">
            <mxPoint x="280" y="560" as="sourcePoint" />
            <mxPoint x="330" y="510" as="targetPoint" />
          </mxGeometry>
        </mxCell>
        <mxCell id="DVWeAlgnOjFAcLPvt_do-27" value="" style="endArrow=none;html=1;rounded=0;exitX=1;exitY=1;exitDx=0;exitDy=0;entryX=1;entryY=1;entryDx=0;entryDy=0;dashed=1;" edge="1" parent="1" source="DVWeAlgnOjFAcLPvt_do-21" target="DVWeAlgnOjFAcLPvt_do-19">
          <mxGeometry width="50" height="50" relative="1" as="geometry">
            <mxPoint x="240" y="550" as="sourcePoint" />
            <mxPoint x="290" y="500" as="targetPoint" />
          </mxGeometry>
        </mxCell>
      </root>
    </mxGraphModel>
  </diagram>
</mxfile>
